<?xml version="1.0" encoding="UTF-8" standalone="no"?>
<!DOCTYPE svg PUBLIC "-//W3C//DTD SVG 1.1//EN"
 "http://www.w3.org/Graphics/SVG/1.1/DTD/svg11.dtd">
<!-- Generated by graphviz version 2.43.0 (0)
 -->
<!-- Title: F Pages: 1 -->
<svg width="1350pt" height="2043pt"
 viewBox="0.00 0.00 485.90 735.40" xmlns="http://www.w3.org/2000/svg" xmlns:xlink="http://www.w3.org/1999/xlink">
<g id="graph0" class="graph" transform="scale(2.78 2.78) rotate(0) translate(25.2 710.2)">
<title>F</title>
<polygon fill="white" stroke="transparent" points="-25.2,25.2 -25.2,-710.2 460.7,-710.2 460.7,25.2 -25.2,25.2"/>
<text text-anchor="start" x="79.25" y="-669.2" font-family="DejaVu Sans" font-weight="bold" font-size="16.00">F6 &#45; Recebimento de fiado (P6)</text>
<text text-anchor="start" x="214.75" y="-653.2" font-family="DejaVu Sans" font-size="16.00"> </text>
<g id="clust1" class="cluster">
<title>cluster_leg</title>
<path fill="white" stroke="#9ca3af" stroke-dasharray="5,2" d="M297.5,-289C297.5,-289 415.5,-289 415.5,-289 421.5,-289 427.5,-295 427.5,-301 427.5,-301 427.5,-625 427.5,-625 427.5,-631 421.5,-637 415.5,-637 415.5,-637 297.5,-637 297.5,-637 291.5,-637 285.5,-631 285.5,-625 285.5,-625 285.5,-301 285.5,-301 285.5,-295 291.5,-289 297.5,-289"/>
<text text-anchor="start" x="330.5" y="-625.2" font-family="DejaVu Sans" font-weight="bold" font-size="11.00" fill="#374151">Legenda</text>
</g>
<!-- a -->
<g id="node1" class="node">
<title>a</title>
<ellipse fill="#f3f4f6" stroke="#1f2328" cx="142.5" cy="-591" rx="34.99" ry="18"/>
<text text-anchor="middle" x="142.5" y="-588.2" font-family="DejaVu Sans" font-size="11.00" fill="#1f2328">Início</text>
</g>
<!-- b -->
<g id="node2" class="node">
<title>b</title>
<path fill="#ffffff" stroke="#1f2328" d="M198,-542C198,-542 87,-542 87,-542 81,-542 75,-536 75,-530 75,-530 75,-518 75,-518 75,-512 81,-506 87,-506 87,-506 198,-506 198,-506 204,-506 210,-512 210,-518 210,-518 210,-530 210,-530 210,-536 204,-542 198,-542"/>
<text text-anchor="middle" x="142.5" y="-527.2" font-family="DejaVu Sans" font-size="11.00" fill="#1f2328">Cliente vai ao caixa</text>
<text text-anchor="middle" x="142.5" y="-515.2" font-family="DejaVu Sans" font-size="11.00" fill="#1f2328">pagar o fiado</text>
</g>
<!-- a&#45;&gt;b -->
<g id="edge1" class="edge">
<title>a&#45;&gt;b</title>
<path fill="none" stroke="#1f2328" d="M142.5,-572.92C142.5,-566.11 142.5,-558.12 142.5,-550.64"/>
<polygon fill="#1f2328" stroke="#1f2328" points="145.3,-550.19 142.5,-542.19 139.7,-550.19 145.3,-550.19"/>
</g>
<!-- c -->
<g id="node3" class="node">
<title>c</title>
<polygon fill="#dcebfa" stroke="#1f2328" points="216,-475 69,-475 69,-439 216,-439 216,-475"/>
<text text-anchor="middle" x="142.5" y="-460.2" font-family="DejaVu Sans" font-size="11.00" fill="#1f2328">Sistema mostra saldo</text>
<text text-anchor="middle" x="142.5" y="-448.2" font-family="DejaVu Sans" font-size="11.00" fill="#1f2328">devedor e histórico</text>
</g>
<!-- b&#45;&gt;c -->
<g id="edge2" class="edge">
<title>b&#45;&gt;c</title>
<path fill="none" stroke="#1f2328" d="M142.5,-505.92C142.5,-499.11 142.5,-491.12 142.5,-483.64"/>
<polygon fill="#1f2328" stroke="#1f2328" points="145.3,-483.19 142.5,-475.19 139.7,-483.19 145.3,-483.19"/>
</g>
<!-- d -->
<g id="node4" class="node">
<title>d</title>
<path fill="#ffffff" stroke="#1f2328" d="M201.5,-408C201.5,-408 83.5,-408 83.5,-408 77.5,-408 71.5,-402 71.5,-396 71.5,-396 71.5,-384 71.5,-384 71.5,-378 77.5,-372 83.5,-372 83.5,-372 201.5,-372 201.5,-372 207.5,-372 213.5,-378 213.5,-384 213.5,-384 213.5,-396 213.5,-396 213.5,-402 207.5,-408 201.5,-408"/>
<text text-anchor="middle" x="142.5" y="-393.2" font-family="DejaVu Sans" font-size="11.00" fill="#1f2328">Cliente informa valor</text>
<text text-anchor="middle" x="142.5" y="-381.2" font-family="DejaVu Sans" font-size="11.00" fill="#1f2328">(total ou parcial)</text>
</g>
<!-- c&#45;&gt;d -->
<g id="edge3" class="edge">
<title>c&#45;&gt;d</title>
<path fill="none" stroke="#1f2328" d="M142.5,-438.92C142.5,-432.11 142.5,-424.12 142.5,-416.64"/>
<polygon fill="#1f2328" stroke="#1f2328" points="145.3,-416.19 142.5,-408.19 139.7,-416.19 145.3,-416.19"/>
</g>
<!-- e -->
<g id="node5" class="node">
<title>e</title>
<polygon fill="#fff7e0" stroke="#1f2328" points="142.5,-337 73.07,-319 142.5,-301 211.93,-319 142.5,-337"/>
<text text-anchor="middle" x="142.5" y="-316.2" font-family="DejaVu Sans" font-size="11.00" fill="#1f2328">Valor ≤ saldo?</text>
</g>
<!-- d&#45;&gt;e -->
<g id="edge4" class="edge">
<title>d&#45;&gt;e</title>
<path fill="none" stroke="#1f2328" d="M142.5,-371.94C142.5,-363.96 142.5,-354.28 142.5,-345.46"/>
<polygon fill="#1f2328" stroke="#1f2328" points="145.3,-345.34 142.5,-337.34 139.7,-345.34 145.3,-345.34"/>
</g>
<!-- f -->
<g id="node6" class="node">
<title>f</title>
<path fill="#fde2e1" stroke="#1f2328" d="M89,-251C89,-251 16,-251 16,-251 10,-251 4,-245 4,-239 4,-239 4,-227 4,-227 4,-221 10,-215 16,-215 16,-215 89,-215 89,-215 95,-215 101,-221 101,-227 101,-227 101,-239 101,-239 101,-245 95,-251 89,-251"/>
<path fill="none" stroke="#1f2328" d="M93,-255C93,-255 12,-255 12,-255 6,-255 0,-249 0,-243 0,-243 0,-223 0,-223 0,-217 6,-211 12,-211 12,-211 93,-211 93,-211 99,-211 105,-217 105,-223 105,-223 105,-243 105,-243 105,-249 99,-255 93,-255"/>
<text text-anchor="middle" x="52.5" y="-230.2" font-family="DejaVu Sans" font-size="11.00" fill="#1f2328">Ajustar valor</text>
</g>
<!-- e&#45;&gt;f -->
<g id="edge6" class="edge">
<title>e&#45;&gt;f</title>
<path fill="none" stroke="#1f2328" d="M128.04,-304.5C115.41,-292.71 96.69,-275.25 81.05,-260.65"/>
<polygon fill="#1f2328" stroke="#1f2328" points="82.77,-258.42 75.01,-255.01 78.95,-262.51 82.77,-258.42"/>
<text text-anchor="middle" x="113" y="-273" font-family="DejaVu Sans" font-size="10.00" fill="#374151"> não </text>
</g>
<!-- g -->
<g id="node7" class="node">
<title>g</title>
<polygon fill="#dcebfa" stroke="#1f2328" points="329.5,-251 137.5,-251 137.5,-215 329.5,-215 329.5,-251"/>
<text text-anchor="middle" x="233.5" y="-236.2" font-family="DejaVu Sans" font-size="11.00" fill="#1f2328">Registrar ABATIMENTO_FIADO</text>
<text text-anchor="middle" x="233.5" y="-224.2" font-family="DejaVu Sans" font-size="11.00" fill="#1f2328">(forma, funcionário, sessão)</text>
</g>
<!-- e&#45;&gt;g -->
<g id="edge5" class="edge">
<title>e&#45;&gt;g</title>
<path fill="none" stroke="#1f2328" d="M157.12,-304.5C170.96,-291.73 192.01,-272.3 208.51,-257.06"/>
<polygon fill="#1f2328" stroke="#1f2328" points="210.84,-258.73 214.82,-251.25 207.04,-254.61 210.84,-258.73"/>
<text text-anchor="middle" x="206" y="-273" font-family="DejaVu Sans" font-size="10.00" fill="#374151"> sim </text>
</g>
<!-- f&#45;&gt;d -->
<g id="edge7" class="edge">
<title>f&#45;&gt;d</title>
<path fill="none" stroke="#1f2328" d="M105.02,-250.89C110.55,-252.4 116.12,-253.8 121.5,-255 144.51,-260.11 210.59,-252.61 226.5,-270 247.8,-293.29 243.41,-313.74 227.5,-341 220.92,-352.27 210.61,-361.11 199.4,-367.95"/>
<polygon fill="#1f2328" stroke="#1f2328" points="197.91,-365.57 192.33,-371.96 200.67,-370.45 197.91,-365.57"/>
</g>
<!-- h -->
<g id="node8" class="node">
<title>h</title>
<polygon fill="#fff7e0" stroke="#1f2328" points="233.5,-180 179.65,-162 233.5,-144 287.35,-162 233.5,-180"/>
<text text-anchor="middle" x="233.5" y="-159.2" font-family="DejaVu Sans" font-size="11.00" fill="#1f2328">Saldo = 0?</text>
</g>
<!-- g&#45;&gt;h -->
<g id="edge8" class="edge">
<title>g&#45;&gt;h</title>
<path fill="none" stroke="#1f2328" d="M233.5,-214.94C233.5,-206.96 233.5,-197.28 233.5,-188.46"/>
<polygon fill="#1f2328" stroke="#1f2328" points="236.3,-188.34 233.5,-180.34 230.7,-188.34 236.3,-188.34"/>
</g>
<!-- i -->
<g id="node9" class="node">
<title>i</title>
<polygon fill="#dcebfa" stroke="#1f2328" points="239,-103 90,-103 90,-67 239,-67 239,-103"/>
<text text-anchor="middle" x="164.5" y="-88.2" font-family="DejaVu Sans" font-size="11.00" fill="#1f2328">Cliente quitado</text>
<text text-anchor="middle" x="164.5" y="-76.2" font-family="DejaVu Sans" font-size="11.00" fill="#1f2328">(histórico preservado)</text>
</g>
<!-- h&#45;&gt;i -->
<g id="edge9" class="edge">
<title>h&#45;&gt;i</title>
<path fill="none" stroke="#1f2328" d="M221.48,-147.94C211.66,-137.26 197.53,-121.9 185.8,-109.15"/>
<polygon fill="#1f2328" stroke="#1f2328" points="187.74,-107.13 180.27,-103.14 183.62,-110.92 187.74,-107.13"/>
<text text-anchor="middle" x="216" y="-121" font-family="DejaVu Sans" font-size="10.00" fill="#374151"> sim </text>
</g>
<!-- z -->
<g id="node10" class="node">
<title>z</title>
<ellipse fill="#f3f4f6" stroke="#1f2328" cx="233.5" cy="-18" rx="28.35" ry="18"/>
<text text-anchor="middle" x="233.5" y="-15.2" font-family="DejaVu Sans" font-size="11.00" fill="#1f2328">Fim</text>
</g>
<!-- h&#45;&gt;z -->
<g id="edge10" class="edge">
<title>h&#45;&gt;z</title>
<path fill="none" stroke="#1f2328" d="M240.51,-146.13C245.52,-134.64 251.83,-118.19 254.5,-103 257.27,-87.24 257.78,-82.66 254.5,-67 252.8,-58.89 249.66,-50.48 246.31,-43"/>
<polygon fill="#1f2328" stroke="#1f2328" points="248.62,-41.34 242.65,-35.32 243.56,-43.75 248.62,-41.34"/>
<text text-anchor="middle" x="270" y="-82.5" font-family="DejaVu Sans" font-size="10.00" fill="#374151"> não </text>
</g>
<!-- i&#45;&gt;z -->
<g id="edge11" class="edge">
<title>i&#45;&gt;z</title>
<path fill="none" stroke="#1f2328" d="M182.63,-66.92C191.67,-58.41 202.66,-48.05 212.11,-39.15"/>
<polygon fill="#1f2328" stroke="#1f2328" points="214.16,-41.07 218.06,-33.54 210.32,-36.99 214.16,-41.07"/>
</g>
<!-- L1 -->
<g id="node11" class="node">
<title>L1</title>
<ellipse fill="#f3f4f6" stroke="#1f2328" cx="356.5" cy="-591" rx="48.03" ry="18"/>
<text text-anchor="middle" x="356.5" y="-588.5" font-family="DejaVu Sans" font-size="10.00" fill="#1f2328">Início / fim</text>
</g>
<!-- L2 -->
<g id="node12" class="node">
<title>L2</title>
<path fill="#ffffff" stroke="#1f2328" d="M407.5,-542C407.5,-542 305.5,-542 305.5,-542 299.5,-542 293.5,-536 293.5,-530 293.5,-530 293.5,-518 293.5,-518 293.5,-512 299.5,-506 305.5,-506 305.5,-506 407.5,-506 407.5,-506 413.5,-506 419.5,-512 419.5,-518 419.5,-518 419.5,-530 419.5,-530 419.5,-536 413.5,-542 407.5,-542"/>
<text text-anchor="middle" x="356.5" y="-521.5" font-family="DejaVu Sans" font-size="10.00" fill="#1f2328">Atividade de pessoa</text>
</g>
<!-- L1&#45;&gt;L2 -->
<!-- L3 -->
<g id="node13" class="node">
<title>L3</title>
<polygon fill="#dcebfa" stroke="#1f2328" points="410.5,-475 302.5,-475 302.5,-439 410.5,-439 410.5,-475"/>
<text text-anchor="middle" x="356.5" y="-454.5" font-family="DejaVu Sans" font-size="10.00" fill="#1f2328">Ação do sistema</text>
</g>
<!-- L2&#45;&gt;L3 -->
<!-- L4 -->
<g id="node14" class="node">
<title>L4</title>
<polygon fill="#fff7e0" stroke="#1f2328" points="356.5,-408 319.33,-390 356.5,-372 393.67,-390 356.5,-408"/>
<text text-anchor="middle" x="356.5" y="-387.5" font-family="DejaVu Sans" font-size="10.00" fill="#1f2328">Decisão</text>
</g>
<!-- L3&#45;&gt;L4 -->
<!-- L5 -->
<g id="node15" class="node">
<title>L5</title>
<path fill="#fde2e1" stroke="#1f2328" d="M378,-337C378,-337 335,-337 335,-337 329,-337 323,-331 323,-325 323,-325 323,-313 323,-313 323,-307 329,-301 335,-301 335,-301 378,-301 378,-301 384,-301 390,-307 390,-313 390,-313 390,-325 390,-325 390,-331 384,-337 378,-337"/>
<path fill="none" stroke="#1f2328" d="M382,-341C382,-341 331,-341 331,-341 325,-341 319,-335 319,-329 319,-329 319,-309 319,-309 319,-303 325,-297 331,-297 331,-297 382,-297 382,-297 388,-297 394,-303 394,-309 394,-309 394,-329 394,-329 394,-335 388,-341 382,-341"/>
<text text-anchor="middle" x="356.5" y="-316.5" font-family="DejaVu Sans" font-size="10.00" fill="#1f2328">Exceção</text>
</g>
<!-- L4&#45;&gt;L5 -->
</g>
</svg>
